{"accessors" : [{"bufferView" : 0, "byteOffset" : 0, "componentType" : 5123, "count" : 7551, "type" : "SCALAR", "max" : [7168], "min" : [0]}, {"bufferView" : 1, "byteOffset" : 0, "componentType" : 5126, "count" : 7169, "type" : "VEC3", "max" : [135.62600708007812, 431.12298583984375, 716.60302734375], "min" : [-187.40199279785156, -184.88600158691406, -357.8840026855469], "name" : "POSITION"}, {"bufferView" : 1, "byteOffset" : 12, "componentType" : 5126, "count" : 7169, "type" : "VEC3", "max" : [0.7615498304367065, 0.7447474002838135, 0.7374279499053955], "min" : [-0.7666690349578857, -0.7442061901092529, -0.7375540137290955], "name" : "NORMAL"}, {"bufferView" : 1, "byteOffset" : 24, "componentType" : 5126, "count" : 7169, "type" : "VEC2", "max" : [0.99480801820755, -0.04744499921798706], "min" : [0.005700999870896339, -0.9925090074539185], "name" : "TEXCOORD_0"}, {"bufferView" : 0, "byteOffset" : 15104, "componentType" : 5123, "count" : 6, "type" : "SCALAR", "max" : [4], "min" : [0]}, {"bufferView" : 2, "byteOffset" : 0, "componentType" : 5126, "count" : 5, "type" : "VEC3", "max" : [514.406005859375, -53.443199157714844, 574.1300048828125], "min" : [-507.30499267578125, -53.443199157714844, -447.5820007324219], "name" : "POSITION"}, {"bufferView" : 2, "byteOffset" : 12, "componentType" : 5126, "count" : 5, "type" : "VEC3", "max" : [0, 1.0000044107437134, 0], "min" : [0, 1.0000044107437134, 0], "name" : "NORMAL"}, {"bufferView" : 2, "byteOffset" : 24, "componentType" : 5126, "count" : 5, "type" : "VEC2", "max" : [1, -0], "min" : [0, -1], "name" : "TEXCOORD_0"}], "asset" : {"generator" : "Aspose.3D 23.2", "version" : "2.0"}, "buffers" : [{"uri" : "data:application/octet-stream;base64,", "byteLength" : 256952}], "bufferViews" : [{"buffer" : 0, "byteOffset" : 0, "byteLength" : 15116, "target" : 34963}, {"buffer" : 0, "byteOffset" : 15120, "byteLength" : 241632, "byteStride" : 32, "target" : 34962}, {"buffer" : 0, "byteOffset" : 256756, "byteLength" : 192, "byteStride" : 32, "target" : 34962}], "cameras" : [{"perspective" : {"aspectRatio" : 1, "yfov" : 0.5235987755982988, "zfar" : 1000, "znear" : 1}, "type" : "perspective", "name" : "Cmara_predeterminada"}], "images" : [{"uri" : "./Combinaci%C3%B3n%20de%20Capa%201%20-%20Textura%20Difusi%C3%B3n.PNG"}], "materials" : [{"name" : "Material_combinado__Capa_1", "pbrMetallicRoughness" : {"baseColorFactor" : [0.8, 0.8, 0.8, 1], "baseColorTexture" : {"index" : 0, "texCoord" : 0}, "metallicFactor" : 0, "roughnessFactor" : 0}, "emissiveFactor" : [0, 0, 0], "alphaMode" : "OPAQUE", "doubleSided" : false}, {"name" : "Material_combinado__Capa_1", "pbrMetallicRoughness" : {"baseColorFactor" : [0.8, 0.8, 0.8, 1], "baseColorTexture" : {"index" : 0, "texCoord" : 0}, "metallicFactor" : 0, "roughnessFactor" : 0}, "emissiveFactor" : [0, 0, 0], "alphaMode" : "OPAQUE", "doubleSided" : false}], "meshes" : [{"primitives" : [{"attributes" : {"POSITION" : 1, "NORMAL" : 2, "TEXCOORD_0" : 3}, "indices" : 0, "material" : 0, "mode" : 4}], "name" : ""}, {"primitives" : [{"attributes" : {"POSITION" : 5, "NORMAL" : 6, "TEXCOORD_0" : 7}, "indices" : 4, "material" : 1, "mode" : 4}], "name" : ""}], "nodes" : [{"camera" : 0, "name" : "Cmara_predeterminada"}, {"matrix" : [0.035277, 0, 0, 0, 0, 0.035277, 0, 0, 0, 0, 0.035277, 0, 4.46393, -46.921, 56.9466, 1], "mesh" : 0, "name" : "Capa_1"}, {"mesh" : 1, "name" : "Plano_de_tierra"}], "samplers" : [{"magFilter" : 9729, "minFilter" : 9729, "wrapS" : 10497, "wrapT" : 10497}], "scene" : 0, "scenes" : [{"nodes" : [0, 1, 2]}], "textures" : [{"sampler" : 0, "source" : 0, "name" : ""}]}