{"accessors" : [{"bufferView" : 0, "byteOffset" : 0, "componentType" : 5123, "count" : 3, "type" : "SCALAR", "max" : [0], "min" : [0]}, {"bufferView" : 1, "byteOffset" : 0, "componentType" : 5126, "count" : 1, "type" : "VEC3", "max" : [-25.65083885192871, 4.34039306640625, 190.02157592773438], "min" : [-25.65083885192871, 4.34039306640625, 190.02157592773438], "name" : "POSITION"}, {"bufferView" : 1, "byteOffset" : 12, "componentType" : 5126, "count" : 1, "type" : "VEC2", "max" : [0.7189599871635437, -0], "min" : [0.7189599871635437, -0], "name" : "TEXCOORD_0"}, {"bufferView" : 1, "byteOffset" : 20, "componentType" : 5126, "count" : 1, "type" : "VEC3", "max" : [0.744117021560669, 0.6673339605331421, -0.031049884855747223], "min" : [0.744117021560669, 0.6673339605331421, -0.031049884855747223], "name" : "NORMAL"}, {"bufferView" : 0, "byteOffset" : 8, "componentType" : 5123, "count" : 3771, "type" : "SCALAR", "max" : [3660], "min" : [0]}, {"bufferView" : 2, "byteOffset" : 0, "componentType" : 5126, "count" : 3661, "type" : "VEC3", "max" : [-22.621578216552734, 12.458724975585938, 190.22506713867188], "min" : [-26.822425842285156, 0, 168.49368286132812], "name" : "POSITION"}, {"bufferView" : 2, "byteOffset" : 12, "componentType" : 5126, "count" : 3661, "type" : "VEC2", "max" : [1, -0], "min" : [0, -1], "name" : "TEXCOORD_0"}, {"bufferView" : 2, "byteOffset" : 20, "componentType" : 5126, "count" : 3661, "type" : "VEC3", "max" : [0.7615500688552856, 0.6673339605331421, 0.675178587436676], "min" : [0.6557104587554932, -0.7442067861557007, -0.7375534176826477], "name" : "NORMAL"}, {"bufferView" : 0, "byteOffset" : 7552, "componentType" : 5123, "count" : 3, "type" : "SCALAR", "max" : [0], "min" : [0]}, {"bufferView" : 3, "byteOffset" : 0, "componentType" : 5126, "count" : 1, "type" : "VEC3", "max" : [-25.65083885192871, 4.34039306640625, 190.02157592773438], "min" : [-25.65083885192871, 4.34039306640625, 190.02157592773438], "name" : "POSITION"}, {"bufferView" : 3, "byteOffset" : 12, "componentType" : 5126, "count" : 1, "type" : "VEC2", "max" : [0.7189599871635437, -0], "min" : [0.7189599871635437, -0], "name" : "TEXCOORD_0"}, {"bufferView" : 3, "byteOffset" : 20, "componentType" : 5126, "count" : 1, "type" : "VEC3", "max" : [0.744117021560669, 0.6673339605331421, -0.031049884855747223], "min" : [0.744117021560669, 0.6673339605331421, -0.031049884855747223], "name" : "NORMAL"}, {"bufferView" : 0, "byteOffset" : 7560, "componentType" : 5123, "count" : 3771, "type" : "SCALAR", "max" : [3504], "min" : [0]}, {"bufferView" : 4, "byteOffset" : 0, "componentType" : 5126, "count" : 3505, "type" : "VEC3", "max" : [-25.383432388305664, 12.458724975585938, 190.22506713867188], "min" : [-29.154817581176758, 0, 168.49368286132812], "name" : "POSITION"}, {"bufferView" : 4, "byteOffset" : 12, "componentType" : 5126, "count" : 3505, "type" : "VEC2", "max" : [1, -0], "min" : [0, -1], "name" : "TEXCOORD_0"}, {"bufferView" : 4, "byteOffset" : 20, "componentType" : 5126, "count" : 3505, "type" : "VEC3", "max" : [-0.6557057499885559, 0.7447475790977478, 0.7374278903007507], "min" : [-0.7666687965393066, -0.6667916178703308, -0.6753075122833252], "name" : "NORMAL"}, {"bufferView" : 0, "byteOffset" : 15104, "componentType" : 5123, "count" : 3, "type" : "SCALAR", "max" : [0], "min" : [0]}, {"bufferView" : 5, "byteOffset" : 0, "componentType" : 5126, "count" : 1, "type" : "VEC3", "max" : [-25.65083885192871, 4.34039306640625, 190.02157592773438], "min" : [-25.65083885192871, 4.34039306640625, 190.02157592773438], "name" : "POSITION"}, {"bufferView" : 5, "byteOffset" : 12, "componentType" : 5126, "count" : 1, "type" : "VEC2", "max" : [0.7189599871635437, -0], "min" : [0.7189599871635437, -0], "name" : "TEXCOORD_0"}, {"bufferView" : 5, "byteOffset" : 20, "componentType" : 5126, "count" : 1, "type" : "VEC3", "max" : [0.744117021560669, 0.6673339605331421, -0.031049884855747223], "min" : [0.744117021560669, 0.6673339605331421, -0.031049884855747223], "name" : "NORMAL"}], "asset" : {"generator" : "Aspose.3D 23.2", "version" : "2.0"}, "buffers" : [{"uri" : "data:application/octet-stream;base64,", "byteLength" : 256768}], "bufferViews" : [{"buffer" : 0, "byteOffset" : 0, "byteLength" : 15112, "target" : 34963}, {"buffer" : 0, "byteOffset" : 15116, "byteLength" : 96, "byteStride" : 32, "target" : 34962}, {"buffer" : 0, "byteOffset" : 15216, "byteLength" : 120672, "byteStride" : 32, "target" : 34962}, {"buffer" : 0, "byteOffset" : 135892, "byteLength" : 96, "byteStride" : 32, "target" : 34962}, {"buffer" : 0, "byteOffset" : 135992, "byteLength" : 120672, "byteStride" : 32, "target" : 34962}, {"buffer" : 0, "byteOffset" : 256668, "byteLength" : 96, "byteStride" : 32, "target" : 34962}], "meshes" : [{"primitives" : [{"attributes" : {"POSITION" : 1, "TEXCOORD_0" : 2, "NORMAL" : 3}, "indices" : 0, "mode" : 4}, {"attributes" : {"POSITION" : 5, "TEXCOORD_0" : 6, "NORMAL" : 7}, "indices" : 4, "mode" : 4}, {"attributes" : {"POSITION" : 9, "TEXCOORD_0" : 10, "NORMAL" : 11}, "indices" : 8, "mode" : 4}, {"attributes" : {"POSITION" : 13, "TEXCOORD_0" : 14, "NORMAL" : 15}, "indices" : 12, "mode" : 4}, {"attributes" : {"POSITION" : 17, "TEXCOORD_0" : 18, "NORMAL" : 19}, "indices" : 16, "mode" : 4}], "name" : ""}], "nodes" : [{"mesh" : 0, "name" : "Capa 1"}], "scene" : 0, "scenes" : [{"nodes" : [0]}]}