{"accessors" : [{"bufferView" : 0, "byteOffset" : 0, "componentType" : 5123, "count" : 7551, "type" : "SCALAR", "max" : [7168], "min" : [0]}, {"bufferView" : 1, "byteOffset" : 0, "componentType" : 5126, "count" : 7169, "type" : "VEC3", "max" : [66.70890045166016, 168.27499389648438, 487.364013671875], "min" : [-118.48500061035156, -184.88600158691406, -128.64500427246094], "name" : "POSITION"}, {"bufferView" : 1, "byteOffset" : 12, "componentType" : 5126, "count" : 7169, "type" : "VEC3", "max" : [0.7615498304367065, 0.7447474002838135, 0.7374279499053955], "min" : [-0.7666690349578857, -0.7442061901092529, -0.7375540137290955], "name" : "NORMAL"}, {"bufferView" : 1, "byteOffset" : 24, "componentType" : 5126, "count" : 7169, "type" : "VEC2", "max" : [0.99480801820755, -0.04744499921798706], "min" : [0.005700999870896339, -0.9925090074539185], "name" : "TEXCOORD_0"}], "asset" : {"generator" : "Aspose.3D 23.2", "version" : "2.0"}, "buffers" : [{"uri" : "data:application/octet-stream;base64,", "byteLength" : 256744}], "bufferViews" : [{"buffer" : 0, "byteOffset" : 0, "byteLength" : 15104, "target" : 34963}, {"buffer" : 0, "byteOffset" : 15108, "byteLength" : 241632, "byteStride" : 32, "target" : 34962}], "images" : [{"uri" : "./Combinaci%C3%B3n%20de%20Capa%201%20-%20Textura%20Difusi%C3%B3n.PNG"}], "materials" : [{"name" : "Material_combinado__Capa_1", "pbrMetallicRoughness" : {"baseColorFactor" : [0.8, 0.8, 0.8, 1], "baseColorTexture" : {"index" : 0, "texCoord" : 0}, "metallicFactor" : 0, "roughnessFactor" : 0}, "emissiveFactor" : [0, 0, 0], "alphaMode" : "OPAQUE", "doubleSided" : false}], "meshes" : [{"primitives" : [{"attributes" : {"POSITION" : 1, "NORMAL" : 2, "TEXCOORD_0" : 3}, "indices" : 0, "material" : 0, "mode" : 4}], "name" : ""}], "nodes" : [{"matrix" : [1, 0, 0, 0, 0, 1, 0, 0, 0, 0, 1, 0, 35.9531, 33.3932, 1.5E-05, 1], "mesh" : 0, "name" : "Capa_1"}, {"children" : [0], "matrix" : [0.035277, 0, 0, 0, 0, 0.035277, 0, 0, 0, 0, 0.035277, 0, 3.19561, -48.099, 56.9466, 1], "name" : "Objetos_de_escena"}], "samplers" : [{"magFilter" : 9729, "minFilter" : 9729, "wrapS" : 10497, "wrapT" : 10497}], "scene" : 0, "scenes" : [{"nodes" : [1]}], "textures" : [{"sampler" : 0, "source" : 0, "name" : ""}]}